<?xml version="1.0" encoding="UTF-8" standalone="no"?>
<!-- Created with Inkscape (http://www.inkscape.org/) -->

<svg
   version="1.1"
   id="svg1"
   width="601.46643"
   height="509.43652"
   viewBox="0 0 601.46643 509.43652"
   xml:space="preserve"
   xmlns="http://www.w3.org/2000/svg"
   xmlns:svg="http://www.w3.org/2000/svg"><defs
     id="defs1" /><g
     id="g1"
     transform="translate(-370.0799,-163.42969)"><path
       style="fill:#000000"
       d="m 782.35547,661.12579 c -0.50364,-19.99311 0.19273,-45.77246 1.23644,-45.77246 1.27193,0 1.2853,56.67746 0.0136,57.46344 -0.56226,0.3475 -1.06525,-4.35685 -1.25,-11.69098 z m 10.19085,-15.21344 c 0,-17.70601 0.35752,-27.55902 1,-27.55902 0.61731,0 1,5.16863 1,13.50589 v 13.5059 l 8.75,-5.61447 c 4.8125,-3.08796 14.19307,-9.50311 20.84571,-14.25589 l 12.09571,-8.64143 -0.48166,-11.71804 c -0.55191,-13.42699 0.15332,-15.4307 6.19964,-17.61457 6.71587,-2.4257 9.88591,1.38077 14.65533,17.59757 1.49867,5.09573 3.49257,10.43664 4.43088,11.86869 1.4928,2.2783 2.22462,2.54437 5.85521,2.12883 2.28205,-0.26119 6.52978,-1.5028 9.43939,-2.75913 l 5.29021,-2.28424 -0.64628,-4.30974 c -0.61429,-4.09635 -0.48011,-4.41107 2.70979,-6.35582 4.80589,-2.92998 7.36363,-2.65663 8.85607,0.94645 0.68345,1.65 1.48615,3 1.78377,3 1.17381,0 9.96532,-6.10402 12.16712,-8.44773 1.99766,-2.12641 2.25261,-3.17801 1.7623,-7.26916 -0.7488,-6.24808 -5.3724,-20.89425 -7.91026,-25.05735 -1.09781,-1.80084 -3.33013,-3.96414 -4.9607,-4.80735 -3.95367,-2.04452 -6.96835,-1.04422 -22.84223,7.57926 -6.875,3.73484 -16.58118,8.82693 -21.56928,11.31575 -4.9881,2.48882 -16.2381,9.59837 -25,15.799 -8.7619,6.20063 -18.95308,12.83667 -22.64707,14.74675 l -6.71635,3.47287 -8.78365,-1.27824 c -4.83101,-0.70304 -21.38365,-3.49996 -36.78365,-6.21538 -15.4,-2.71542 -52.075,-8.96406 -81.5,-13.88588 -29.425,-4.92181 -54.42646,-9.20458 -55.5588,-9.51727 -1.98335,-0.5477 -2.03104,-0.31874 -1.30135,6.2481 0.4166,3.74915 0.78056,9.86858 0.8088,13.59875 0.0537,7.08697 1.61096,12.28027 4.3681,14.5668 2.14459,1.77852 4.07251,2.20488 39.18325,8.66525 31.23526,5.74728 103.48419,19.34284 116.5,21.92257 l 7.5,1.4865 -8,-0.36766 c -4.4,-0.20221 -23.3,-3.31005 -42,-6.90631 -18.7,-3.59626 -44.35,-8.38351 -57,-10.63835 -12.65,-2.25484 -29.73912,-5.4031 -37.97583,-6.99615 -8.23671,-1.59304 -15.16913,-2.70315 -15.40537,-2.4669 -0.23625,0.23625 -0.64692,9.46233 -0.9126,20.50241 -0.30636,12.73061 -0.83186,19.72406 -1.43665,19.11927 -0.56524,-0.56524 -0.8143,-9.21339 -0.61157,-21.23593 l 0.34202,-20.28234 -2.62893,-2.62765 c -2.92708,-2.92565 -3.39923,-5.44996 -4.44661,-23.77363 -0.4219,-7.38109 -1.03534,-11.25055 -1.78376,-11.2516 -0.8301,-10e-4 -0.96604,3.74283 -0.49923,13.75 0.96788,20.74928 0.97548,67.44191 0.0109,66.84576 -0.46621,-0.28814 -1.09562,-18.10115 -1.39869,-39.58448 -0.39827,-28.23191 -0.8842,-39.46205 -1.75283,-40.50868 -0.66099,-0.79644 -2.84408,-1.74582 -4.85131,-2.10974 -2.00724,-0.36392 -5.33702,-1.50997 -7.39952,-2.54679 -3.56794,-1.7936 -3.75,-2.12341 -3.75,-6.79337 0,-3.03851 0.57376,-5.48201 1.50619,-6.41443 0.8284,-0.8284 8.24908,-4.79805 16.49038,-8.82143 11.29853,-5.51591 14.84148,-7.6842 14.40397,-8.81524 -0.31913,-0.825 -1.5638,-12.2189 -2.76595,-25.31978 l -2.18572,-23.81978 -17.00858,-8.72032 c -20.41365,-10.46611 -39.21943,-21.7358 -48.18882,-28.87799 -12.11078,-9.64361 -18.38244,-20.60878 -25.88822,-45.26213 -6.90922,-22.69387 -12.34141,-48.81294 -12.35737,-59.41667 -0.003,-2.15416 -0.24409,-3.67847 -0.53522,-3.38735 -1.09271,1.09272 -2.41576,18.17756 -3.45133,44.56783 -1.44036,36.70571 -2.33158,41.39564 -13.34687,70.23619 -11.38905,29.81913 -19.80329,65.25609 -23.62554,99.5 -1.83548,16.44431 -5.04694,58.79277 -5.04694,66.55244 0,4.20519 -0.29546,11.1411 -0.65658,15.41313 -0.65536,7.75294 -0.66322,7.7701 -4.242,9.26542 -3.98453,1.66484 -16.14407,1.94878 -65.05142,1.51901 -18.18584,-0.15981 -28.10349,-0.59651 -27.48954,-1.21046 0.57684,-0.57684 19.01583,-1.07611 46.16519,-1.25 39.9497,-0.25588 45.39156,-0.47648 46.81194,-1.89766 1.31483,-1.31557 1.76667,-5.49983 2.48366,-23 1.83681,-44.83273 5.645,-79.72841 12.08231,-110.71415 4.20023,-20.21765 7.87754,-31.99341 22.33815,-71.53285 4.87097,-13.31862 6.32101,-24.23492 7.5243,-56.64488 0.98558,-26.54576 2.70558,-42.53969 6.39871,-59.5 3.00295,-13.79073 5.80917,-19.68888 12.9699,-27.2603 5.76185,-6.0923 12.76912,-10.30092 27.03224,-16.23577 10.95963,-4.56027 16.85327,-5.02119 7.13314,-0.55786 -22.07948,10.13856 -27.03632,12.92607 -31.94871,17.96652 -6.06215,6.22019 -10.15116,14.21926 -12.22711,23.91913 -6.00495,28.05818 11.68814,101.00655 29.23081,120.51822 7.2557,8.07008 33.2559,24.54731 59.34898,37.6115 l 11.40397,5.7097 -0.65397,-7.73645 c -0.35968,-4.25504 -0.65397,-14.61429 -0.65397,-23.02053 V 450.4834 l -13.42173,-9.99905 c -7.38195,-5.49948 -15.24839,-11.20787 -17.48097,-12.68533 l -4.05925,-2.68628 -3.71822,3.26464 c -4.66456,4.09554 -11.75267,7.29073 -14.34694,6.46735 -3.00499,-0.95375 -2.47077,-4.89468 1.06705,-7.87155 1.8001,-1.51469 5.47074,-3.06002 9,-3.78897 3.27803,-0.67707 5.96006,-1.61549 5.96006,-2.08539 0,-0.46989 -1.36995,-6.56736 -3.04434,-13.54992 -1.67438,-6.98256 -5.29444,-22.82057 -8.04457,-35.19557 -5.77308,-25.97761 -8.03988,-34.08542 -11.94148,-42.71177 -5.21829,-11.53754 -10.55743,-16.74088 -19.37387,-18.88112 l -5.09574,-1.23702 4.34887,-0.085 c 15.10249,-0.29534 24.90335,16.60632 33.58348,57.91495 1.90691,9.075 5.12751,23.475 7.15689,32 2.02937,8.525 3.96449,17.40664 4.30027,19.73698 0.5162,3.58256 1.15889,4.51554 4.16109,6.04054 1.95283,0.99196 9.74277,6.44538 17.31097,12.11871 7.56821,5.67333 13.97154,10.10399 14.22962,9.84591 0.25809,-0.25808 0.89459,-3.08268 1.41446,-6.27687 1.33876,-8.22567 4.59223,-17.59246 9.58322,-27.59031 9.26381,-18.55704 10.53494,-26.62218 7.5455,-47.87496 -2.58827,-18.40066 -2.91202,-22 -1.97888,-22 0.41464,0 0.98276,1.4625 1.2625,3.25 0.27973,1.7875 1.42512,8.94228 2.54531,15.89952 3.74478,23.25801 2.74989,30.72689 -6.88447,51.68345 -6.44387,14.01664 -8.45274,19.74643 -10.05071,28.66703 -1.26881,7.08309 -2.90577,5.30135 16.38004,17.8289 11.28208,7.32854 13.59184,9.24033 13.59184,11.25 0,1.57646 0.57166,2.4211 1.63864,2.4211 3.06891,0 25.64038,12.48402 30.60214,16.92569 7.14955,6.40015 21.75922,28.51925 21.75922,32.94355 0,6.11465 -7.68855,2.69938 -14.63722,-6.50189 l -4.86278,-6.43918 -0.63208,3.07687 c -0.95025,4.6257 -3.76865,7.26481 -7.05617,6.60731 -1.50381,-0.30076 -2.96269,-0.17715 -3.24195,0.2747 -0.27925,0.45186 -3.28205,1.11152 -6.67287,1.46593 -5.12479,0.53565 -6.7015,0.31289 -9.34375,-1.32011 -3.79272,-2.34403 -5.85761,-5.8417 -5.39217,-9.13363 0.25997,-1.83865 -0.64568,-3.1631 -3.87607,-5.66846 -2.31842,-1.79808 -5.59376,-5.27273 -7.27852,-7.72145 l -3.06321,-4.45223 -3.58797,3.97145 c -3.78627,4.19095 -6.7001,4.93143 -11.79014,2.9962 -2.13785,-0.81281 -2.56714,-0.68789 -2.57734,0.75 -0.0351,4.94844 4.47356,46.22525 5.0492,46.22525 0.37091,0 8.72683,-3.8703 18.56871,-8.60068 24.39885,-11.72699 33.55398,-15.41225 38.08772,-15.33164 4.36885,0.0777 3.33837,0.67409 -5.69339,3.29515 -5.01343,1.45492 -76.2937,35.63391 -81.69437,39.17257 -1.86094,1.21933 -2.27476,2.32597 -2.14559,5.73765 0.13497,3.56485 0.22234,3.72954 0.5578,1.05142 0.67219,-5.36631 1.72238,-5.56223 15.37895,-2.8691 28.67162,5.65411 180.40188,30.54459 186.19748,30.54459 2.03815,0 3.70573,0.45 3.70573,1 0,0.55 -2.19789,1 -4.88419,1 -4.02568,0 -45.76409,-6.4377 -87.61581,-13.5138 -71.88676,-12.15428 -92.44518,-15.70533 -100.21908,-17.31079 -5.07049,-1.04716 -9.45799,-1.665 -9.75,-1.373 -0.86677,0.86677 -0.60339,6.03477 0.33718,6.61607 1.50127,0.92784 20.65864,4.34629 87.6319,15.63709 35.75,6.02698 75.26736,12.72193 87.81636,14.87768 27.66423,4.75234 26.55099,4.94296 44.88139,-7.68539 22.2591,-15.33496 54.82964,-38.41811 56.34137,-39.92984 1.60726,-1.60725 1.91768,-6.04877 0.57127,-8.17364 -1.46114,-2.30594 -9.94868,-3.32564 -26.44126,-3.1767 -10.8693,0.0982 -16.27565,-0.22615 -17.25,-1.0348 -0.80547,-0.66848 -1.4198,-2.9626 -1.42068,-5.30532 -0.002,-4.33452 -2.64999,-10.74234 -4.70638,-11.38732 -0.81816,-0.25661 -0.69319,0.65298 0.38731,2.81888 0.87739,1.75876 1.82487,5.23493 2.10551,7.72482 0.61783,5.48135 -1.1035,7.20534 -7.22602,7.23715 -2.23238,0.0116 -7.20887,1.13464 -11.05887,2.49564 -7.93379,2.80466 -10.34241,3.05751 -11.06975,1.16209 -0.31362,-0.81727 -1.59141,-1.16201 -3.3502,-0.90388 -1.56376,0.22951 -3.14805,-0.076 -3.52065,-0.67882 -0.37259,-0.60287 -1.72078,-1.09612 -2.99597,-1.09612 -1.2752,0 -2.87874,-0.675 -3.56343,-1.5 -0.68469,-0.825 -0.90969,-1.5 -0.5,-1.5 0.40969,0 0.18954,-0.66916 -0.48922,-1.48701 -2.81048,-3.38642 2.53439,-11.39717 10.87637,-16.30121 4.22536,-2.48398 5.49488,-2.71178 15.11285,-2.71178 8.27794,0 11.03437,-0.3635 13.0251,-1.71765 1.3888,-0.94471 7.15622,-2.81212 12.81647,-4.14981 5.66026,-1.33768 10.47579,-2.61656 10.70117,-2.84195 0.22539,-0.22539 -0.51328,-2.83915 -1.64149,-5.80836 -9.4779,-24.94379 -9.0591,-43.82438 1.19962,-54.0831 l 3.87128,-3.87128 -2.23608,-1.46013 c -1.22984,-0.80308 -6.56027,-3.46523 -11.84541,-5.91589 l -9.60935,-4.45576 -0.59325,7.65197 c -0.93089,12.00676 -5.0262,21.18942 -10.35343,23.21483 -3.21667,1.22298 -8.40417,-0.96522 -14.52634,-6.12751 l -4.69565,-3.95943 -6.38937,3.51203 c -3.51415,1.93162 -7.13949,3.51204 -8.05632,3.51204 -0.91682,0 -1.66695,0.42157 -1.66695,0.93681 0,0.51525 2.38708,6.25275 5.30462,12.75 4.7652,10.6119 9.35411,18.79309 19.67321,35.07379 1.83387,2.89333 3.07314,5.52176 2.75395,5.84095 -1.58573,1.58573 -17.54894,-24.42041 -24.20574,-39.43431 -8.82962,-19.9145 -9.85224,-25.65803 -5.93253,-33.31974 1.79582,-3.51023 0.17639,-4.1774 -5.73436,-2.36242 l -4.35915,1.33854 3.16983,1.15807 c 1.7434,0.63693 3.42929,1.83422 3.74641,2.66063 0.99616,2.59595 -1.25116,5.35768 -4.35975,5.35768 h -2.87314 l 1.74916,5.75 c 4.50164,14.79816 13.16467,33.78334 22.82766,50.02722 3.0353,5.10247 5.23098,9.56497 4.87928,9.91666 -0.80844,0.80845 -0.52346,1.16319 -6.1808,-7.69388 -9.30193,-14.56301 -20.71199,-39.843 -23.5829,-52.25 l -1.33052,-5.75 h -4.16837 c -3.88193,0 -4.37912,0.32843 -7.23532,4.77943 -4.82137,7.51346 -10.44055,20.48811 -15.57847,35.97057 -2.60091,7.8375 -5.1416,14.25 -5.64599,14.25 -1.42951,0 -1.22486,-0.84033 3.92749,-16.12674 5.39267,-15.99943 11.34816,-30.32375 13.67755,-32.89771 1.41362,-1.56203 1.14044,-1.73693 -3.58754,-2.29689 -2.81472,-0.33336 -8.28247,-2.06486 -12.15056,-3.84778 l -7.03287,-3.24166 -2.97257,3.70539 c -1.64776,2.05397 -3.86638,3.70539 -4.97807,3.70539 -9.22647,0 -57.37307,-21.80649 -67.74126,-30.68128 -6.9244,-5.92703 -20.92475,-25.82577 -16.05136,-22.81385 0.55434,0.3426 3.49204,3.98199 6.52823,8.08753 7.86119,10.62991 12.43818,14.71374 23.52787,20.99277 18.11139,10.25476 51.73952,23.65933 54.68819,21.79935 0.82954,-0.52326 3.2149,-4.91168 5.30081,-9.75206 2.08591,-4.84037 4.8992,-10.47293 6.25176,-12.51679 l 2.45921,-3.71611 -6.63198,-3.43591 c -3.64759,-1.88975 -15.51695,-8.5178 -26.37635,-14.72901 -10.85941,-6.2112 -20.34344,-11.52297 -21.07562,-11.80394 -0.81389,-0.31232 -2.54041,1.4343 -4.44265,4.49437 -3.23391,5.20228 -7.29862,7.41367 -9.52839,5.1839 -2.34585,-2.34585 4.07931,-10.51166 9.7855,-12.43649 0.54696,-0.1845 -3.79425,-10.19879 -9.64712,-22.25397 -5.85288,-12.05518 -13.21756,-27.99351 -16.36595,-35.41851 -3.1484,-7.425 -6.79303,-15.61926 -8.09918,-18.20946 -3.14692,-6.24059 -12.82587,-16.4389 -19.73175,-20.79054 -5.53643,-3.4887 -6.84277,-5 -4.32191,-5 2.45364,0 10.2121,5.86408 16.83569,12.72493 7.08624,7.34007 9.59439,11.74179 18.10579,31.77507 3.03777,7.15 10.06973,22.40446 15.62659,33.89881 5.55685,11.49434 10.10337,21.45805 10.10337,22.14159 0,0.68353 1.07507,1.51261 2.38905,1.8424 1.31398,0.32979 7.99472,3.93782 14.84608,8.01784 6.85137,4.08003 18.84276,10.87767 26.64753,15.10587 11.99216,6.4967 14.09693,7.98243 13.58653,9.59056 -0.57406,1.8087 0.0891,1.90293 13.39303,1.90293 h 13.99699 l -2.35446,-4.25 c -3.08569,-5.56996 -5.11705,-13.78973 -6.67254,-27 -0.84456,-7.17262 -1.67628,-10.75 -2.49931,-10.75 -1.59067,0 -3.16819,-2.82293 -2.73379,-4.89203 0.2387,-1.13695 -1.76274,-2.63322 -6.83252,-5.10797 -8.72917,-4.26103 -11.72413,-8.22985 -9.58245,-12.69833 1.91608,-3.99776 8.50299,-7.25432 16.10979,-7.96466 l 6.45672,-0.60294 4.13754,-6.29319 c 8.93004,-13.5826 21.341,-19.258 39.71603,-18.16173 7.30657,0.43591 9.54014,0.25183 10.46493,-0.86248 2.76449,-3.33099 9.18085,-0.59743 9.18085,3.91132 0,1.4696 0.35334,2.67201 0.7852,2.67201 0.43186,0 3.044,1.78548 5.80476,3.96773 10.09253,7.97769 15.16399,19.10508 15.15446,33.25072 -0.005,8.09903 -1.01425,13.77325 -2.98351,16.78155 -0.8504,1.29908 -1.48615,1.19432 -4.74641,-0.78213 -8.43872,-5.11577 -26.75384,-12.21787 -31.50782,-12.21787 -1.16602,0 2.04865,7.21497 4.16667,9.35164 1.00952,1.0184 3.34575,2.16052 5.19165,2.53804 2.82744,0.57828 3.61325,1.38237 4.98808,5.1042 0.89755,2.42978 2.03766,4.55303 2.53357,4.71834 0.49592,0.1653 1.7386,-1.25354 2.76151,-3.15298 3.12141,-5.7961 9.44183,-6.48118 12.99484,-1.40854 4.47047,6.38248 -1.15243,17.28123 -10.03884,19.45808 -1.56979,0.38454 -3.18477,1.19238 -3.58885,1.79519 -1.12788,1.68262 -0.90075,9.20467 0.36161,11.97524 1.51821,3.33211 0.59749,6.38445 -3.57364,11.84721 -2.91176,3.81342 -13.40165,11.8897 -17.00152,13.08966 -1.31613,0.43871 5.24313,6.29907 8.67883,7.75408 7.18024,3.04082 12.12356,-4.16076 14.06508,-20.49043 0.72786,-6.12182 1.57,-9.57973 2.33305,-9.57973 2.29057,0 17.63432,7.04587 21.73692,9.98161 2.2739,1.62717 5.786,4.07997 7.80466,5.45067 5.4086,3.67252 8.06847,7.67593 15.71554,23.65374 10.34409,21.61298 15.05602,39.00701 13.8495,51.12525 -0.46736,4.69416 -0.1575,5.90705 2.75619,10.78873 1.8055,3.025 4.46674,7.86375 5.91385,10.75277 1.5572,3.10878 4.03939,6.17 6.0814,7.5 4.59908,2.99546 7.93568,9.39908 11.10833,21.31914 2.12677,7.99056 2.50074,11.08464 1.9809,16.38912 -0.46683,4.76345 -0.089,9.21627 1.39158,16.39905 3.38966,16.44467 2.81311,18.32865 -7.81048,25.52211 -8.65927,5.86337 -31.01244,17.75902 -36.98783,19.68375 l -5.33071,1.71707 2.09347,2.09348 c 2.98684,2.98684 14.77662,3.53992 65.81796,3.08765 23.5704,-0.20885 42.25,0.0102 42.25,0.49543 0,1.71961 -15.23215,2.20362 -59,1.87478 -46.91547,-0.3525 -46.44592,-0.3067 -51.64807,-5.03787 -1.48202,-1.34784 -3.86213,-2.03359 -7.67611,-2.21161 -6.50511,-0.30363 -10.3113,-2.46624 -12.16626,-6.91265 -0.72787,-1.74472 -1.88161,-9.47222 -2.56387,-17.17222 -0.68227,-7.7 -1.51165,-14.72165 -1.84309,-15.60367 -0.47924,-1.27537 -3.0592,0.20273 -12.6026,7.22028 -6.6,4.85317 -15.9375,11.13863 -20.75,13.96768 l -8.75,5.14372 v 12.32698 c 0,7.13929 -0.42084,12.58707 -1,12.94501 -0.65743,0.40631 -1,-8.82295 -1,-26.94098 z m 62.91667,12.08166 c -1.19443,-1.03005 -5.91667,-1.55659 -5.91667,-0.65973 0,0.56048 1.425,1.01905 3.16667,1.01905 1.74166,0 2.97916,-0.1617 2.75,-0.35932 z m 25.76992,-8.60514 c 16.57145,-8.69486 27.7761,-16.32414 29.2696,-19.92976 1.01754,-2.45657 0.833,-4.93484 -1.11883,-15.02532 l -2.33736,-12.08354 -6,3.9855 c -5.87166,3.90026 -6.01069,4.09814 -6.5,9.25154 -0.4546,4.78791 -0.80937,5.42048 -3.90738,6.96699 -4.18222,2.08775 -6.58629,1.08071 -7.42444,-3.11004 l -0.59602,-2.98012 -6.28608,2.56776 c -8.67707,3.54443 -13.32,3.56462 -16.32509,0.071 -1.28765,-1.49698 -3.92659,-7.80041 -5.86431,-14.00762 -3.41691,-10.94563 -6.1824,-15.74193 -9.07662,-15.74193 -2.70455,0 -2.36182,1.6261 0.88955,4.22043 4.66549,3.72268 6.00481,9.53772 14.15809,61.47139 l 0.5011,3.19181 4.40219,-1.32486 c 2.4212,-0.72868 9.71822,-4.11413 16.2156,-7.52323 z m -33.1653,6.26623 c 1.15541,-1.58012 1.52819,-1.58571 5.36024,-0.0804 4.05525,1.59295 4.11878,1.58448 4.13873,-0.55178 0.0318,-3.40163 -5.88768,-39.23218 -8.04055,-48.66955 -1.94797,-8.53917 -1.96527,-8.56702 -8.74233,-14.07606 -4.45399,-3.62062 -4.34774,3.67092 0.74976,51.45122 0.83495,7.8262 2.82488,13.62484 4.67567,13.62484 0.33919,0 1.1755,-0.7642 1.85848,-1.69823 z m 42.64997,-35.95676 c 1.72924,-1.56494 2.5104,-6.33001 1.24513,-7.59529 -0.52822,-0.52822 -7.41639,2.98623 -7.41639,3.78396 0,0.18486 0.43886,1.49042 0.97525,2.90122 1.13057,2.97363 2.62635,3.23562 5.19601,0.91011 z m -2.63914,-8.79398 c 3.71166,-1.55084 4.25995,-3.08555 2.13871,-5.98651 -1.05892,-1.44817 -1.73642,-1.59979 -3.33224,-0.74573 -3.12519,1.67255 -4.30554,3.5916 -3.68011,5.98325 0.6815,2.60603 0.49697,2.57768 4.87364,0.74899 z m -12.3021,-46.00828 8.73003,-4.70261 -1.39238,-3.17007 c -0.7658,-1.74354 -2.42112,-5.53257 -3.67849,-8.42007 -1.25736,-2.8875 -2.60212,-5.25 -2.98835,-5.25 -0.38623,0 -3.10942,1.1206 -6.05153,2.49023 -5.11877,2.38292 -5.20924,2.49065 -2.0993,2.5 4.54006,0.0136 7.25,3.00758 7.25,8.00977 0,4.6222 -0.86444,5.66146 -10.32359,12.41137 -7.58193,5.41035 -8.72813,6.97222 -2.42641,3.30633 2.3375,-1.35978 8.17851,-4.58851 12.98002,-7.17495 z m 14.46892,-6.33552 c 0.85762,-0.54518 -0.22161,-3.38759 -3.79109,-9.98469 -4.85062,-8.96489 -6.42947,-10.63275 -7.47821,-7.89979 -0.65944,1.71848 7.47149,18.68199 8.94503,18.66194 0.61893,-0.008 1.66485,-0.35828 2.32427,-0.77746 z m -86.03185,-8.35035 c 2.6581,-1.17872 7.98291,-2.41622 11.83291,-2.75 6.9685,-0.60415 7.00137,-0.62102 7.30538,-3.74995 0.28331,-2.9159 -3.02932,-11.75927 -4.81929,-12.86553 -0.42992,-0.2657 -4.09933,-0.94454 -8.15425,-1.50853 -5.78132,-0.80411 -8.37142,-0.72482 -12.00048,0.36737 -5.26538,1.58465 -10.93437,5.58132 -13.97639,9.85344 -3.07014,4.31161 -1.36183,4.6814 2.91339,0.63065 5.07194,-4.80565 8.28969,-6.84434 10.70415,-6.78188 1.87882,0.0486 1.84744,0.17693 -0.42801,1.75 -5.24805,3.6281 -13.0445,10.3535 -13.0445,11.25249 0,1.93303 3.29027,0.84233 7.3317,-2.43041 5.23365,-4.23819 10.3849,-6.89209 11.10768,-5.72262 0.30408,0.49201 -1.63029,2.2955 -4.29861,4.00776 -5.40369,3.46754 -8.77968,6.78475 -7.85056,7.71388 0.33621,0.3362 3.98726,-1.24155 8.11344,-3.50613 4.12618,-2.26458 7.74834,-4.11742 8.04925,-4.11742 1.65744,0 0.0128,1.99157 -3.9529,4.78689 -2.475,1.74454 -4.5,3.63117 -4.5,4.1925 0,1.3646 0.10565,1.34368 5.66709,-1.12251 z m 61.70556,-5.34529 c 3.22995,-0.85254 7.11627,-2.4356 8.63626,-3.51793 10.26411,-7.30869 6.87238,-29.72324 -9.49937,-62.77752 -7.14878,-14.43324 -12.10813,-21.21614 -15.51229,-21.21614 -4.4489,0 -10.86653,11.46686 -11.7267,20.95298 -0.59583,6.57091 0.49256,12.53328 4.8822,26.74541 l 3.14994,10.1984 5.76918,-0.15991 c 6.37161,-0.1766 10.92813,1.62677 10.92813,4.32511 0,2.4688 -1.69256,2.7877 -8.62616,1.62527 -5.41371,-0.90761 -7.4489,-0.70791 -17.5,1.7172 -6.25561,1.50934 -12.47519,3.17916 -13.82129,3.71071 l -2.44745,0.96646 3.25763,1.98108 c 3.76716,2.29096 6.13727,7.21034 6.13727,12.7385 0,2.126 0.3375,4.22151 0.75,4.65668 1.20972,1.27621 29.20962,-0.25361 35.62265,-1.9463 z M 700.83863,522.60333 c -1.12451,-3.0514 -10.09719,-17.14834 -14.82861,-23.29717 -5.77598,-7.50633 -8.15268,-9.2343 -23.53283,-17.10952 l -12.56913,-6.43586 -5.76799,8.33649 -5.76798,8.33649 4.60423,5.38931 c 2.53233,2.96412 6.50903,6.84903 8.83712,8.63314 5.09649,3.90564 6.73288,5.79229 6.73288,7.76256 0,1.08013 -0.67938,0.84495 -2.5,-0.86544 -2.15421,-2.02377 -2.5,-2.1064 -2.5,-0.59739 0,2.73757 5.61582,7.7909 8.24348,7.4178 2.00102,-0.28413 2.29048,-0.97147 2.55642,-6.07041 0.45586,-8.73996 3.15322,-6.62367 3.18645,2.5 0.0137,3.77787 0.53453,4.25482 3.43186,3.14301 1.2307,-0.47226 1.58179,-2.13696 1.58179,-7.5 0,-3.79115 0.39752,-6.89301 0.88337,-6.89301 1.1958,0 2.08643,3.63512 2.10298,8.58333 0.0163,4.86302 0.63235,5.69111 3.20841,4.31244 1.6674,-0.89237 1.9031,-2.01671 1.72212,-8.21482 -0.11532,-3.94952 0.19371,-7.37395 0.68672,-7.60984 0.49302,-0.23589 1.06169,0.4294 1.26371,1.47842 0.3967,2.05986 7.56579,11.93476 12.4874,17.20047 3.32385,3.55624 7.04149,4.49542 5.9376,1.5 z m 158.70769,-4.25 c -0.825,-0.53316 -3.975,-0.91241 -7,-0.84278 -5.40096,0.12431 -5.42797,0.13949 -1.5,0.84278 6.40475,1.14675 10.27447,1.14675 8.5,0 z M 632.18998,496.90967 c 2.94765,-2.94765 3.273,-3.71692 2.25885,-5.34084 -2.98457,-4.77905 3.07132,-15.12559 10.28118,-17.56547 2.07033,-0.70062 3.38425,-1.68439 3,-2.24619 -0.798,-1.16672 -26.63851,-18.2574 -28.93969,-19.14045 -1.39072,-0.53367 -1.49564,1.69331 -0.98081,20.81951 0.31707,11.7794 0.87627,22.18 1.24266,23.11244 0.68456,1.74212 4.56632,3.58583 7.84415,3.72571 1.0175,0.0434 3.39965,-1.4707 5.29366,-3.36471 z m 10.22571,-14.05634 c 5.30962,-7.60472 5.31324,-9.19034 0.0124,-5.41579 -4.24397,3.02198 -8.89014,12.91579 -6.0653,12.91579 0.44904,0 3.17286,-3.375 6.05294,-7.5 z m 142.25558,-17.13656 c 6.24774,-2.80382 6.95351,-3.7159 4.06966,-5.25929 -1.34328,-0.7189 -5.67995,-7.39737 -5.69666,-8.77287 -10e-4,-0.0928 -1.20625,-0.47095 -2.67805,-0.84035 -2.44643,-0.61401 -2.76748,-0.34217 -3.74237,3.16872 -1.83407,6.60505 -1.21137,14.34035 1.15441,14.34035 0.55988,0 3.66174,-1.18645 6.89301,-2.63656 z m -33.12495,-3.86344 c 1.08329,-1.30528 0.45779,-1.5 -4.81854,-1.5 -3.33488,0 -6.34154,-0.45 -6.68146,-1 -0.6923,-1.12017 8.46295,-1.63069 20.64472,-1.1512 5.11209,0.20121 7.88769,-0.0922 8.37812,-0.88575 1.00827,-1.63141 -0.71041,-2.56667 -10.27284,-5.59021 -4.5375,-1.4347 -8.25,-3.00552 -8.25,-3.4907 0,-1.25017 2.14129,-1.09538 6.62427,0.47885 3.29242,1.15616 4.60544,1.14729 8.72414,-0.059 l 4.84841,-1.41995 -3.84841,-3.38802 -3.84841,-3.38802 -14.51711,0.19697 -14.51712,0.19698 -3.13057,7.28187 -3.13057,7.28188 4.14769,2.1494 c 3.81059,1.97471 14.60797,5.54708 17.27524,5.71561 0.62015,0.0392 1.68775,-0.60376 2.37244,-1.42876 z m 49.4039,-3.92805 c 6.02741,-3.38942 13.36968,-10.12538 15.42132,-14.14786 0.77767,-1.52472 0.68758,-3.11782 -0.33932,-6 -2.79594,-7.84736 -0.84184,-14.7029 4.49518,-15.77031 1.76353,-0.3527 4.73923,-2.17409 6.61267,-4.04753 2.86068,-2.86068 3.40625,-4.12341 3.40625,-7.88381 0,-8.07695 -6.21735,-9.13704 -10.00816,-1.70644 -3.02577,5.93099 -5.43564,5.39832 -8.60136,-1.90122 -2.06859,-4.76977 -2.91573,-5.79018 -4.46964,-5.38383 -4.09672,1.07132 -9.92084,-5.97811 -9.92084,-12.00802 0,-2.31965 -0.57994,-2.59231 -9.25,-4.34887 -5.76774,-1.16855 -13.45758,-1.87406 -20.42667,-1.87406 -9.79566,0 -11.52553,0.25975 -14,2.10215 -3.02578,2.25288 -5.22337,6.86548 -3.8726,8.12834 0.45269,0.42323 1.01856,0.22324 1.25749,-0.44443 0.32057,-0.89584 0.88864,-0.93026 2.16785,-0.13139 1.33933,0.83643 3.19878,0.4728 8.17868,-1.59942 13.53827,-5.63349 14.6334,-5.68307 11.58615,-0.52448 l -1.75397,2.96923 3.80653,-0.027 c 2.0936,-0.0149 6.94356,-1.36488 10.77769,-3 7.58286,-3.23382 9.01369,-3.56645 7.95202,-1.84864 -1.45536,2.35482 -13.91498,7.13058 -18.92317,7.25324 -4.82648,0.1182 -4.99863,0.027 -4.96058,-2.62755 0.0217,-1.5125 0.0217,-2.74792 0,-2.74537 -0.0217,0.003 -2.73942,1.11687 -6.03942,2.47627 -3.3,1.35939 -7.07464,2.48231 -8.38809,2.49536 -2.34188,0.0233 -2.37507,0.1509 -1.71502,6.59334 2.70141,26.36731 7.93092,37.92661 19.844,43.86315 9.81499,4.89102 19.24296,2.81133 31.12338,-6.8654 3.19371,-2.60131 6.02825,-4.50816 6.29898,-4.23743 0.89017,0.89017 -6.70622,8.50522 -10.98688,11.01385 -2.30665,1.35179 -6.50118,3.21247 -9.32117,4.13484 -4.23842,1.38632 -5.03892,2.01486 -4.61766,3.62574 0.64842,2.47956 5.66797,7.89565 7.31757,7.89565 0.68898,0 3.99594,-1.54262 7.34879,-3.42805 z m -24.17288,-20.30521 c -4.49168,-0.54451 -3.03948,-2.26674 1.91133,-2.26674 2.66205,0 3.89032,0.40198 3.62848,1.1875 -0.4783,1.43491 -1.29441,1.5939 -5.53981,1.07924 z m -5.00319,-10.37412 c -3.15759,-1.17369 -3.67232,-3.20323 -2.20068,-8.67723 1.76958,-6.58221 3.34551,-7.86888 2.71344,-2.21539 -0.27671,2.475 -0.66904,5.13821 -0.87185,5.91825 -0.20281,0.78003 0.65173,1.9505 1.89897,2.60104 1.24724,0.65054 2.50415,1.41923 2.79313,1.70821 1.02071,1.02072 -2.09123,1.4984 -4.33301,0.66512 z M 786.54632,414.52 c 0,-3.48294 0.89177,-4.50138 2.65799,-3.03555 2.15988,1.79254 1.70286,5.86888 -0.65799,5.86888 -1.52941,0 -2,-0.66667 -2,-2.83333 z m -26.2776,-0.12019 c -0.28097,-1.07444 0.0573,-2.73054 0.75174,-3.68022 1.17162,-1.60229 1.34967,-1.56398 2.47123,0.53166 0.66475,1.2421 0.96311,2.8982 0.66302,3.68022 -0.79736,2.07788 -3.29286,1.73645 -3.88599,-0.53166 z m 28.0276,-9.78152 c -5.11351,-0.40321 -6.27532,-1.84402 -2.29291,-2.84355 2.87239,-0.72092 7.74338,0.68 8.31374,2.39109 0.21771,0.65312 0.0208,1.10639 -0.4375,1.00725 -0.45833,-0.0991 -2.97083,-0.34879 -5.58333,-0.55479 z m -32.75,-1.04134 c 0,-2.09495 7.31103,-3.14741 8.5,-1.22362 0.34319,0.55529 -0.40882,1.00607 -1.69098,1.01365 -1.26996,0.008 -3.32152,0.285 -4.55902,0.61664 -1.2458,0.33386 -2.25,0.15236 -2.25,-0.40667 z m -24.29786,38.14519 c -0.5345,-0.5345 -5.18531,9.17881 -6.04792,12.63119 -0.34356,1.375 0.97481,-0.80639 2.9297,-4.84753 1.95489,-4.04114 3.35809,-7.54379 3.11822,-7.78366 z M 571.70877,429.24908 c 2.66065,-1.70733 4.83755,-3.34158 4.83755,-3.63166 0,-1.28302 -8.19593,0.73923 -10.95317,2.70257 -6.72797,4.79073 -1.20886,5.6292 6.11562,0.92909 z m 101.83755,-22.09192 c 0,-1.5247 -1.73504,-0.79607 -4.36364,1.83253 -1.45,1.45 -2.63636,3.33828 -2.63636,4.19617 0,1.06402 1.11248,0.48155 3.5,-1.83253 1.925,-1.86578 3.5,-3.75406 3.5,-4.19617 z m 162.35159,-22.80383 c 0.12263,-7.84943 -0.26951,-10.60143 -2.25695,-15.8394 -4.82762,-12.72334 -17.5586,-22.45349 -32.98546,-25.21042 -16.47318,-2.94393 -34.53827,4.79299 -41.93961,17.96189 l -2.29754,4.08793 4.31399,0.007 c 5.59477,0.009 18.58831,3.17722 26.74927,6.52212 7.1275,2.92131 21.41482,11.7341 23.33421,14.39315 0.67678,0.93757 4.34583,2.94287 8.15346,4.45622 3.80762,1.51336 8.75762,4.02624 11,5.58419 l 4.07704,2.83263 0.85159,-2.64766 c 0.46838,-1.45621 0.91838,-6.92266 1,-12.14766 z m -86.41595,1.12025 c 1.20302,-2.24786 6.82413,-4.60498 13.19348,-5.53246 5.91849,-0.86184 19.4014,0.78496 33.18499,4.05319 5.94775,1.41028 11.0012,2.37705 11.22987,2.14837 0.70363,-0.70362 -14.98306,-9.79527 -21.31026,-12.35094 -11.43898,-4.62041 -18.0792,-5.89933 -30.73372,-5.91939 -10.82149,-0.0172 -12.49105,0.2265 -17,2.48098 -8.11383,4.05691 -6.89902,9.10744 3.5,14.55119 5.51635,2.88773 6.65117,2.96911 7.93564,0.56906 z m 64.83817,-42.29881 c -0.72219,-2.16659 -3.60795,-3.3873 -4.9158,-2.07945 -0.92939,0.92939 -0.65605,1.41328 1.22247,2.16414 3.30361,1.32047 4.15521,1.30095 3.69333,-0.0847 z m -15.77186,258.42856 c 10e-4,-0.4125 3.26357,-2.86019 7.25,-5.43931 3.98643,-2.57912 20.05007,-13.4771 35.69698,-24.21774 25.60855,-17.57867 33.21016,-22.18374 27.49551,-16.65683 -1.87858,1.81688 -55.63745,39.00427 -64.193,44.40515 -4.24231,2.67806 -6.25308,3.29219 -6.24949,1.90873 z m -48.50195,-19.92484 c -21.72974,-5.64361 -26.30811,-6.51934 -35,-6.69465 -8.97372,-0.18098 -10.41051,-0.47456 -14,-2.86067 -3.44671,-2.29119 -7.18143,-3.15047 -27,-6.21217 -30.68671,-4.74067 -30.47061,-4.7011 -31.0833,-5.69245 -0.8173,-1.32242 0.72632,-1.15511 28.60601,3.10046 25.36866,3.87228 28.60721,4.65934 32.24893,7.83739 1.30812,1.14157 4.44768,1.60353 12,1.76569 8.85795,0.19019 13.64488,1.08549 35.72836,6.68232 24.27974,6.15345 25.62298,6.38581 28.06996,4.85581 1.41347,-0.88379 11.36386,-8.69439 22.11197,-17.35689 17.81017,-14.35421 21.90958,-17.17879 21.77003,-15 -0.0458,0.71561 -35.40435,29.29659 -42.06259,34 -1.75182,1.2375 -3.90609,2.20908 -4.78725,2.15906 -0.88117,-0.05 -12.85212,-3.01277 -26.60212,-6.5839 z m 16.5,-0.90205 c -16.5389,-5.42585 -35.33351,-9.46286 -48,-10.31023 -11.64636,-0.77912 -12.9964,-1.08999 -19.76892,-4.5522 -8.94999,-4.57536 -18.25266,-6.40657 -36.48108,-7.18123 -8.55413,-0.36353 -13.75,-0.98062 -13.75,-1.63303 0,-1.49076 29.77761,-0.0557 37.94605,1.82867 3.54533,0.81788 8.90955,2.82135 11.9205,4.45215 6.33346,3.43035 7.74047,3.28148 2.94913,-0.31203 -9.01378,-6.76035 -16.67857,-8.71993 -36.97163,-9.45212 -19.09181,-0.68885 -20.35103,-1.4634 -11.09359,-6.82369 2.61224,-1.51256 11.5382,-7.1802 19.83546,-12.59475 8.29725,-5.41456 15.38475,-9.84465 15.75,-9.84465 3.31409,0 -9.6408,9.31804 -31.33592,22.53893 l -6.5,3.96107 15,0.60236 c 8.25,0.33129 17.2291,1.14123 19.95356,1.79985 7.12068,1.72139 16.17295,6.84352 20.00369,11.31888 3.27814,3.82977 3.31024,3.84143 3.91729,1.42274 0.56206,-2.23942 23.07966,-20.59113 38.12546,-31.07202 5.22786,-3.64173 14.37971,-6.57181 20.52644,-6.57181 4.87959,0 15.24982,1.94536 16.42356,3.08091 1.10647,1.07047 -1.34492,1.07491 -9.82882,0.0178 -7.87582,-0.98131 -17.00487,0.38581 -22.28586,3.33741 -3.7248,2.08186 -41.33532,30.30069 -41.33532,31.01355 0,0.14154 2.34807,-0.35172 5.21793,-1.09616 11.14743,-2.8916 24.19914,-1.01642 40.78207,5.85931 5.225,2.16643 11.18113,4.5576 13.23584,5.31371 l 3.73584,1.37476 16.57426,-12.45064 c 15.28946,-11.4855 20.71783,-14.88325 17.40965,-10.89714 -1.53895,1.85432 -31.59149,24.36954 -33.51057,25.10596 -0.73442,0.28183 -6.88186,-1.72821 -13.66099,-4.46673 -6.77912,-2.73853 -14.74307,-5.69703 -17.69767,-6.57445 -8.05652,-2.39253 -19.5865,-2.95215 -26.08636,-1.26612 l -5.5,1.42667 7.15332,0.11058 c 8.92043,0.1379 21.69859,2.69331 40.0188,8.00307 7.79467,2.25913 14.9624,4.10751 15.9283,4.10751 0.9659,0 6.96345,-3.97828 13.32788,-8.84061 13.44723,-10.27349 19.91185,-14.65257 20.60606,-13.95836 0.67026,0.67026 -31.28245,24.94862 -33.3731,25.3576 -0.91369,0.17874 -5.03626,-0.78224 -9.16126,-2.13552 z m -21.34833,-53.01628 c -7.0476,-4.9237 -16.1766,-7.44681 -29.40167,-8.12615 -6.33939,-0.32564 -11.25,-1.00845 -11.25,-1.56429 0,-1.80732 23.78944,-0.15688 31,2.15069 7.1436,2.28614 13.36623,6.0802 15.01021,9.152 1.44415,2.69841 0.3331,2.36413 -5.35854,-1.61225 z m 8.65735,-0.65683 c -1.06641,-1.64768 -0.66885,-37.38795 0.45884,-41.25 1.14202,-3.91113 3.77757,-4.44728 4.65604,-0.94717 0.66881,2.66472 -1.0854,38.42215 -2.0456,41.69717 -0.60118,2.05051 -1.92608,2.26634 -3.06928,0.5 z m 2.96362,-28.09861 c 0.3002,-7.35283 0.1499,-12.47393 -0.35139,-11.97264 -0.48178,0.48178 -1.09967,8.06365 -1.37309,16.84861 -0.30965,9.94907 -0.17713,14.46417 0.35139,11.97264 0.46669,-2.2 1.08458,-9.78187 1.37309,-16.84861 z M 599.18287,340.92321 c -4.55335,-4.55334 -9.54258,-11.9357 -19.56995,-28.95683 -9.51148,-16.14542 -12.0666,-21.01426 -12.0666,-22.99321 0,-0.80291 2.60739,-4.08334 5.79421,-7.28984 6.02717,-6.0644 8.84197,-11.05285 12.83991,-22.75515 2.79992,-8.19564 2.72767,-7.57485 0.88166,-7.57485 -2.86645,0 -7.59632,-5.37816 -8.57472,-9.75 -1.94514,-8.69157 3.1099,-18.25 9.65164,-18.25 2.95523,0 8.4073,4.94102 8.4073,7.61924 0,1.4229 0.6419,1.15854 3.25,-1.33848 3.37955,-3.23559 7.42598,-4.63998 16.75,-5.81337 15.39489,-1.93738 30.66635,-9.88401 37,-19.25326 1.96595,-2.90818 4.15371,-5.07065 4.99147,-4.93375 0.85882,0.14034 3.79679,5.54075 6.92637,12.73167 5.79978,13.32631 7.05764,19.69597 5.23787,26.52397 l -1.05647,3.96398 2.96407,-3.47862 c 5.26452,-6.17843 7.17288,-13.10148 6.76285,-24.53392 -0.30433,-8.48549 -0.778,-10.84945 -3.10575,-15.5 -1.51065,-3.0181 -3.85465,-6.83094 -5.20887,-8.47296 l -2.46223,-2.9855 0.49166,3.9855 0.49167,3.9855 -1.94216,-4 c -1.06818,-2.2 -1.97553,-4.49914 -2.01632,-5.10921 -0.13606,-2.03506 -7.98226,-10.12332 -12.85129,-13.24777 -12.77578,-8.1982 -30.81533,-9.80492 -46.89036,-4.17637 -7.87966,2.759 -18.43215,10.12793 -23.46969,16.38917 -14.01606,17.42079 -16.00934,44.09532 -4.87884,65.28981 3.69164,7.02954 4.18052,8.66399 3.56802,11.92887 -0.90431,4.82041 -6.03095,10.04952 -10.7139,10.92805 -9.94701,1.86607 -22.72628,-6.95207 -26.6679,-18.40177 -5.33414,-15.49475 8.28156,-35.14331 21.02084,-30.33477 l 2.80896,1.06026 v -5.53935 c 0,-8.65532 3.59841,-22.1533 7.79968,-29.2574 4.36792,-7.38587 14.6704,-17.4043 21.90532,-21.30137 11.43124,-6.1574 29.45374,-8.40062 41.75345,-5.19696 10.26338,2.67327 16.51153,6.80939 27.79434,18.39916 13.29195,13.65358 15.07087,17.54442 15.1197,33.06965 0.0412,13.10851 -2.22903,19.76951 -8.80346,25.8296 -3.0421,2.80411 -4.88315,5.62397 -6.10015,9.34332 -7.83355,23.94065 -16.6234,36.85073 -29.25226,42.96426 -5.98557,2.89757 -13.66758,3.53689 -18.45638,1.536 l -3.68073,-1.5379 -2.06519,3.34155 c -1.77531,2.87251 -1.92469,3.95088 -1.06421,7.68237 1.27617,5.53407 1.31516,17.6503 0.0811,25.18582 -2.17465,13.2786 -6.80573,16.81375 -13.39462,10.22486 z m 8.61711,-2.70962 c 2.43313,-4.89886 3.94872,-17.90247 3.1306,-26.86026 l -0.68498,-7.5 -1.66719,3.94972 c -0.93624,2.21805 -1.96342,3.47041 -2.34285,2.85648 -0.88429,-1.43082 1.75436,-8.84534 4.77836,-13.42703 l 2.38981,-3.62082 -5.22622,-4.51199 c -6.54149,-5.64752 -13.42707,-15.35048 -11.945,-16.83255 0.72825,-0.72825 1.81739,0.26977 3.58386,3.28402 3.19057,5.4443 12.08711,13.92341 17.51349,16.69174 5.30419,2.706 13.20475,2.75257 19.02279,0.11214 6.50628,-2.95278 15.13348,-12.27608 19.89634,-21.50171 4.43496,-8.59048 11.71441,-29.42637 12.79009,-36.60889 0.68227,-4.55567 -0.24611,-7.77004 -7.04466,-24.39111 -3.32892,-8.13855 -3.55133,-8.48214 -4.23666,-6.54502 -0.93197,2.63424 -9.31668,10.90406 -14.29361,14.09775 -6.38838,4.09941 -16.65032,7.51314 -27.05172,8.99901 -10.24026,1.46284 -14.1976,2.99835 -16.40334,6.36473 -2.35731,3.59772 -3.86542,3.23462 -5.97246,-1.43797 -3.12621,-6.93268 -10.41613,-6.50877 -12.42419,0.72248 -1.41293,5.08809 -1.34419,6.56358 0.52323,11.23072 1.20923,3.02216 2.40506,4.24138 5,5.09779 4.2537,1.40384 4.36125,3.20325 0.78666,13.16091 -4.15178,11.56553 -7.21299,16.82572 -13.06298,22.44662 -5.00845,4.81232 -5.35226,5.42489 -4.23754,7.55011 2.82611,5.38797 18.6085,31.78759 22.2495,37.21735 5.10618,7.61474 10.66999,13.75602 12.0723,13.3253 0.60649,-0.18629 1.89186,-1.92757 2.85637,-3.86952 z m 20.24634,-58.2719 c -3.4103,-1.51573 -8.15945,-6.26224 -7.21284,-7.20885 0.3456,-0.34561 2.01784,0.54079 3.71607,1.96976 3.42732,2.88389 9.91029,5.00488 12.38968,4.05345 1.06525,-0.40877 1.60709,-0.0749 1.60709,0.99029 0,2.02852 -6.11929,2.14237 -10.5,0.19535 z m 7.75,-11.20479 c -0.6875,-0.30263 -1.25,-1.15944 -1.25,-1.90403 0,-0.97279 0.92773,-1.20325 3.29639,-0.81887 4.19858,0.68134 6.1975,-1.44124 5.34963,-5.68056 -0.93094,-4.65471 0.35713,-11.98011 2.10654,-11.98011 1.04754,0 1.30431,0.65821 0.87773,2.25 -0.33164,1.2375 -0.61602,5.175 -0.63195,8.75 -0.0159,3.575 -0.39599,7.07844 -0.84457,7.78543 -0.88986,1.40247 -6.89828,2.48092 -8.90377,1.59814 z m 17.75,-13.76113 c 0,-2.8695 2.62035,-5.40209 4.07954,-3.9429 1.38804,1.38804 -0.60569,6.32046 -2.55479,6.32046 -0.93879,0 -1.52475,-0.91369 -1.52475,-2.37756 z m -28.60839,-6.0443 c -0.73631,-1.91879 1.32593,-5.57814 3.14357,-5.57814 1.78118,0 1.96822,4.0966 0.26482,5.8 -1.59051,1.59051 -2.74167,1.51558 -3.40839,-0.22186 z m 37.10839,-6.17326 c -1.1,-0.84233 -3.2375,-1.35596 -4.75,-1.14139 -1.81426,0.25738 -2.75,-0.0613 -2.75,-0.93668 0,-2.09291 7.35418,-1.69791 9.34501,0.50193 2.93981,3.24845 1.71038,4.29871 -1.84501,1.57614 z m -28.94113,-6.93668 c -2.28617,-1.72918 -6.86182,-1.91162 -9.71026,-0.38718 -2.51275,1.34478 -3.55568,0.47588 -1.86867,-1.55685 0.82114,-0.98941 2.99932,-1.52417 6.20825,-1.52417 5.5089,0 8.81181,1.32508 8.81181,3.53518 0,1.83196 -0.95509,1.81337 -3.44113,-0.067 z m -59.7039,34.1068 c 3.00356,-1.5532 5.14503,-5.31373 5.14503,-9.0349 0,-1.30118 -2.35733,-6.98265 -5.2385,-12.62547 -3.49404,-6.84312 -5.40884,-11.93063 -5.75,-15.27742 -0.47837,-4.69271 -0.72731,-5.07342 -3.84306,-5.8772 -4.70464,-1.21368 -11.09966,2.04362 -14.77686,7.52659 -3.97657,5.92937 -4.61514,16.55442 -1.39475,23.20686 4.96245,10.25104 17.79951,16.24882 25.85814,12.08154 z"
       id="path232" /></g></svg>
